<svg xmlns="http://www.w3.org/2000/svg" width="80" height="80" viewBox="0 0 80 80" fill="none">
  <path d="M28 16C28 12.8174 29.2643 9.76515 31.5147 7.51472C33.7652 5.26428 36.8174 4 40 4C43.1826 4 46.2348 5.26428 48.4853 7.51472C50.7357 9.76515 52 12.8174 52 16V40C52 43.1826 50.7357 46.2348 48.4853 48.4853C46.2348 50.7357 43.1826 52 40 52C36.8174 52 33.7652 50.7357 31.5147 48.4853C29.2643 46.2348 28 43.1826 28 40V16Z" fill="white"/>
  <path d="M22 38.572C22 37.7764 21.6839 37.0133 21.1213 36.4507C20.5587 35.8881 19.7956 35.572 19 35.572C18.2044 35.572 17.4413 35.8881 16.8787 36.4507C16.3161 37.0133 16 37.7764 16 38.572V40C16 52.24 25.16 62.34 37 63.816V70H31C30.2044 70 29.4413 70.3161 28.8787 70.8787C28.3161 71.4413 28 72.2044 28 73C28 73.7957 28.3161 74.5587 28.8787 75.1213C29.4413 75.684 30.2044 76 31 76H49C49.7957 76 50.5587 75.684 51.1213 75.1213C51.6839 74.5587 52 73.7957 52 73C52 72.2044 51.6839 71.4413 51.1213 70.8787C50.5587 70.3161 49.7957 70 49 70H43V63.816C48.8002 63.0844 54.1339 60.2612 58.0004 55.8763C61.8669 51.4914 64.0002 45.8461 64 40V38.572C64 37.7764 63.6839 37.0133 63.1213 36.4507C62.5587 35.8881 61.7957 35.572 61 35.572C60.2043 35.572 59.4413 35.8881 58.8787 36.4507C58.3161 37.0133 58 37.7764 58 38.572V40C58 44.7739 56.1036 49.3523 52.7279 52.7279C49.3523 56.1036 44.7739 58 40 58C35.2261 58 30.6477 56.1036 27.2721 52.7279C23.8964 49.3523 22 44.7739 22 40V38.572Z" fill="white"/>
</svg>

